<?xml version="1.0" encoding="iso-8859-1"?>
<!-- Uploaded to: SVG Repo, www.svgrepo.com, Generator: SVG Repo Mixer Tools -->
<svg fill="#000000" height="800px" width="800px" version="1.1" id="Layer_1" xmlns="http://www.w3.org/2000/svg" xmlns:xlink="http://www.w3.org/1999/xlink" 
	 viewBox="0 0 512 512" xml:space="preserve">
<g>
	<g>
		<g>
			<path d="M462.791,222.155c-0.952-0.952-1.915-1.89-2.887-2.818c-0.548-0.523-1.106-1.033-1.66-1.549
				c-0.411-0.382-0.818-0.768-1.233-1.146c-0.787-0.717-1.582-1.419-2.38-2.12c-0.172-0.151-0.342-0.306-0.514-0.455
				c-22.664-19.731-49.791-32.816-78.986-38.274c-0.111-0.021-0.223-0.041-0.333-0.062c-1.026-0.189-2.053-0.372-3.083-0.543
				c-0.539-0.091-1.08-0.174-1.62-0.259c-0.633-0.098-1.267-0.198-1.902-0.29c-1.051-0.154-2.104-0.294-3.159-0.427
				c-0.152-0.019-0.305-0.04-0.457-0.058c-4.252-0.526-8.537-0.901-12.849-1.104c-21.641-1.018-43.001,2.125-63.041,9.06
				l-46.023-38.024c-7.651-7.503-17.749-11.631-28.48-11.631c-10.868,0-21.084,4.232-28.766,11.916l-15.884,15.883l-54.318-54.317
				c-3.167-3.166-8.299-3.166-11.465,0c-3.166,3.166-3.166,8.299,0,11.464l54.318,54.317l-10.527,10.526l-63.406-63.403
				c-2.94-2.94-7.625-3.178-10.85-0.556c-13.956,11.359-34.091,10.31-46.836-2.432c-13.656-13.659-13.656-35.881-0.001-49.536
				c5.516-5.514,12.55-8.952,20.345-9.939c3.668-0.465,6.556-3.353,7.022-7.022c0.989-7.797,4.426-14.832,9.939-20.345
				c13.655-13.656,35.877-13.656,49.534-0.001c12.746,12.747,13.793,32.885,2.434,46.84c-2.624,3.223-2.384,7.91,0.555,10.85
				l52.233,52.233c3.167,3.166,8.299,3.166,11.464,0c3.166-3.166,3.166-8.299,0-11.463l-47.432-47.432
				c11.935-19.878,9.083-45.614-7.791-62.49c-19.978-19.978-52.486-19.977-72.462,0c-6.654,6.653-11.242,14.808-13.462,23.845
				c-9.035,2.219-17.19,6.807-23.846,13.462c-19.975,19.977-19.975,52.485,0.003,72.465c16.875,16.872,42.61,19.723,62.487,7.789
				l60.771,60.772c-6.084,14.648-3.257,32.155,8.491,44.138l38.055,46.062c-20.975,60.681-5.525,128.529,40.012,174.067
				c31.781,31.779,74.041,49.284,118.995,49.288h0.016c44.942,0,87.196-17.503,118.981-49.288
				C528.403,394.533,528.403,287.77,462.791,222.155z M451.326,448.682c-28.722,28.723-66.901,44.542-107.516,44.539h-0.014
				c-40.625-0.003-78.813-15.821-107.531-44.539c-42.162-42.161-55.78-105.49-34.696-161.336c1.027-2.72,0.518-5.785-1.334-8.027
				L159,229.411c-0.163-0.198-0.336-0.387-0.518-0.569c-9.54-9.542-9.541-25.065-0.004-34.608l19.114-19.113l19.287-19.286
				c4.621-4.622,10.766-7.167,17.302-7.167c6.536,0,12.682,2.545,17.305,7.168c0.181,0.18,0.371,0.353,0.567,0.518l39.603,32.718
				c-12.183,5.781-23.714,13.047-34.316,21.724c-3.464,2.836-3.974,7.943-1.138,11.407c2.835,3.465,7.943,3.971,11.408,1.138
				c12.667-10.369,26.512-18.37,40.993-24.049c0.468-0.086,0.934-0.2,1.388-0.371c17.241-6.511,35.365-9.813,53.868-9.813
				c34.216,0,66.703,11.228,93.252,31.937c0.04,0.031,0.081,0.062,0.122,0.094c0.885,0.692,1.763,1.398,2.634,2.111
				c0.108,0.089,0.217,0.174,0.325,0.263c0.814,0.669,1.619,1.351,2.42,2.038c0.154,0.131,0.308,0.259,0.462,0.391
				c0.773,0.668,1.536,1.348,2.297,2.033c0.171,0.153,0.344,0.303,0.513,0.457c0.797,0.723,1.586,1.46,2.369,2.202
				c0.124,0.118,0.251,0.231,0.374,0.349c0.908,0.865,1.807,1.742,2.697,2.632C510.618,292.913,510.618,389.39,451.326,448.682z"/>
			<path d="M465.133,350.428c-4.436-0.586-8.517,2.518-9.115,6.955c-0.494,3.677-1.182,7.375-2.046,10.99
				c-1.04,4.354,1.646,8.727,6.002,9.768c0.633,0.151,1.267,0.224,1.889,0.224c3.666,0,6.99-2.503,7.878-6.226
				c0.989-4.143,1.779-8.381,2.345-12.596C472.682,355.105,469.571,351.025,465.133,350.428z"/>
			<path d="M464.913,343.414c0.158,0,0.319-0.004,0.48-0.014c4.469-0.26,7.88-4.095,7.62-8.566
				c-1.521-26.056-10.854-50.685-26.989-71.22c-15.879-20.211-37.148-35.009-61.508-42.793c-4.265-1.363-8.826,0.989-10.19,5.254
				c-1.363,4.264,0.99,8.826,5.254,10.189c43.541,13.913,74.584,53.905,77.247,99.515
				C457.079,340.09,460.653,343.414,464.913,343.414z"/>
		</g>
	</g>
</g>
</svg>