<?xml version="1.0" encoding="UTF-8"?>
<svg id="Capa_1" data-name="Capa 1" xmlns="http://www.w3.org/2000/svg" version="1.1" viewBox="0 0 1366 1366">
  <defs>
    <style>
      .cls-1 {
        stroke-width: 9px;
      }

      .cls-1, .cls-2, .cls-3, .cls-4, .cls-5 {
        fill: none;
        stroke-miterlimit: 10;
      }

      .cls-1, .cls-3 {
        stroke: #ff9035;
      }

      .cls-2 {
        stroke-width: 34px;
      }

      .cls-2, .cls-4 {
        stroke: #c16427;
      }

      .cls-3 {
        stroke-width: 13px;
      }

      .cls-4 {
        stroke-width: 20px;
      }

      .cls-5 {
        stroke: #000;
        stroke-width: 29px;
      }
    </style>
  </defs>
  <path class="cls-4" d="M848.7,421.5c26.9,0,52.6,3.6,76.2,10.8,8.8,2.7,17.2,5.8,25.3,9.4-1.5,2.3-2.7,4.6-3.7,6.7-10.4,22.3-6.8,49.1,10.1,75.6,8.9,14,21.3,27.5,34.8,38,16.7,12.9,32.6,19.4,47.2,19.4s1.8,0,2.7,0c3.1-.2,6.2-.5,9.2-1,3.3,26.8,3.1,58.6-5.2,93-8.9,36.7-25.7,70.6-50,100.9-14.1,17.6-30.8,33.8-48.2,47l-13.3,10.1.2,16.7v1.9c0,51.6-10.1,101.6-30,148.7-19.2,45.5-46.8,86.3-81.9,121.4-35.1,35.1-76,62.6-121.4,81.9-47.1,19.9-97.1,30-148.7,30s-101.6-10.1-148.7-30c-45.5-19.2-86.3-46.8-121.4-81.9s-62.6-75.9-81.9-121.4c-19.9-47.1-30-97.1-30-148.7s10.1-101.6,30-148.7c19.2-45.5,46.8-86.3,81.9-121.4,35.1-35.1,76-62.6,121.4-81.9,47.1-19.9,97.1-30,148.7-30s60.5,3.6,89.6,10.6l13.1,3.2,11.6-7c29.3-17.6,60.2-31.1,91.8-40.1,30.4-8.7,60.9-13.1,90.6-13.1M848.7,388.5c-64.7,0-134.6,19-199.4,58-31.2-7.5-63.8-11.5-97.4-11.5-229.2,0-415,185.8-415,415s185.8,415,415,415,415-185.8,415-415,0-1.5,0-2.3c20.6-15.5,86.8-69.5,110.4-166.4,17.6-72.3-5.2-146.8-4.9-140.8-1.8.8-4.6,1.9-8,3,0,0-13.2,4.3-25,5-.3,0-.6,0-.8,0-17.5,0-73.8-44.8-62.2-86,1.4-5.1,4.6-12.6,12.5-20.5h0c3.3-3.5,6.7-7,10-10.5-15.3-10.1-36.9-22-64.4-30.7-34.6-11-65.1-12.8-85.8-12.3Z"/>
  <path class="cls-5" d="M1113.5,269c31.2,0,56.5,25.4,56.5,56.5s-.6,9.2-1.7,13.6l-10.6,42.6,43.9-1.7c.6,0,1.2,0,1.8,0,31.2,0,56.5,25.4,56.5,56.5s-25.3,56.5-56.5,56.5-28.1-5.4-38.7-15.3l-21-19.7-22.4,18.1-77.1,62.3c-1.7,1.4-3.5,1.7-4.8,1.7s-4-.3-6-2.8l-50.7-62.7c-2.6-3.2-2.1-8.2,1.2-10.8l76.4-61.8,23.8-19.2-17.4-25.2c-6.5-9.4-9.9-20.5-9.9-32,0-31.1,25.3-56.5,56.5-56.5M1113.5,236c-49.4,0-89.5,40.1-89.5,89.5s5.8,36.4,15.8,50.8l-76.4,61.8c-17.4,14.1-20.1,39.8-6.1,57.2l50.7,62.8c8,9.9,19.8,15,31.7,15s18-2.9,25.5-9l77.1-62.3c16,15,37.6,24.2,61.2,24.2,49.4,0,89.5-40.1,89.5-89.5s-40.1-89.5-89.5-89.5-2.1,0-3.1,0c1.7-6.9,2.6-14.1,2.6-21.6,0-49.4-40.1-89.5-89.5-89.5h0Z"/>
  <path class="cls-3" d="M353,794c35.8,0,65,29.2,65,65s-29.2,65-65,65-65-29.2-65-65,29.2-65,65-65M353,768c-50.3,0-91,40.7-91,91s40.7,91,91,91,91-40.7,91-91-40.7-91-91-91h0Z"/>
  <path class="cls-1" d="M337.7,666.2c21.1,0,38.3,17.2,38.3,38.3s-17.2,38.3-38.3,38.3-38.3-17.2-38.3-38.3,17.2-38.3,38.3-38.3M337.7,648.2c-31.1,0-56.3,25.2-56.3,56.3s25.2,56.3,56.3,56.3,56.3-25.2,56.3-56.3-25.2-56.3-56.3-56.3h0Z"/>
  <path class="cls-1" d="M461.4,718c11.7,0,21.2,9.5,21.2,21.2s-9.5,21.2-21.2,21.2-21.2-9.5-21.2-21.2,9.5-21.2,21.2-21.2M461.4,700c-21.7,0-39.2,17.6-39.2,39.2s17.6,39.2,39.2,39.2,39.2-17.6,39.2-39.2-17.6-39.2-39.2-39.2h0Z"/>
  <path class="cls-2" d="M1172,566"/>
</svg>